<?xml version="1.0" standalone="no"?>
<!DOCTYPE svg PUBLIC "-//W3C//DTD SVG 20010904//EN"
 "http://www.w3.org/TR/2001/REC-SVG-20010904/DTD/svg10.dtd">
<svg version="1.0" xmlns="http://www.w3.org/2000/svg"
 width="623.505934pt" height="634.882626pt" viewBox="0 0 623.505934 634.882626"
 preserveAspectRatio="xMidYMid meet">
<metadata>
Created by potrace 1.12, written by Peter Selinger 2001-2015
</metadata>
<g transform="translate(-192.001344,838.000000) scale(0.100000,-0.100000)"
fill="#272d4d" stroke="none">
<path d="M3390 8365 c-389 -57 -753 -231 -1005 -480 -236 -233 -382 -506 -445
-833 -19 -100 -20 -147 -20 -1835 0 -1475 2 -1744 15 -1815 46 -264 144 -509
283 -706 83 -119 278 -310 392 -385 224 -147 497 -243 775 -271 78 -8 587 -10
1730 -8 l1620 3 98 22 c399 91 643 223 889 482 200 209 333 476 406 811 l27
125 0 1735 c0 1947 5 1802 -75 2041 -179 536 -608 925 -1180 1069 -227 57
-274 60 -907 60 -569 0 -580 0 -601 -20 -40 -38 -29 -49 87 -89 113 -39 257
-110 326 -160 l49 -36 436 -6 c397 -5 442 -8 515 -27 278 -72 514 -207 693
-396 186 -197 299 -437 332 -706 14 -120 14 -3021 -1 -3127 -23 -166 -98 -318
-223 -450 -124 -132 -289 -230 -444 -266 l-63 -15 3 72 3 71 68 5 c64 5 71 8
103 42 46 50 46 88 0 134 l-34 34 -166 0 c-140 0 -174 -3 -217 -19 -103 -40
-150 -87 -157 -161 -5 -50 11 -91 47 -124 12 -11 21 -27 21 -36 0 -15 -127
-16 -1740 -18 -1161 -2 -1740 1 -1740 8 0 5 16 30 35 55 79 104 50 192 -85
262 -53 27 -62 28 -221 31 -135 3 -172 1 -196 -12 -40 -20 -59 -67 -47 -113
13 -53 52 -77 132 -83 l67 -5 3 -72 c2 -44 -1 -73 -7 -73 -26 0 -183 56 -246
87 -240 120 -425 353 -475 598 -10 46 -12 423 -12 1617 1 1529 2 1558 22 1657
92 453 414 806 875 960 189 63 260 71 651 71 l341 0 64 42 c94 61 222 122 340
163 57 20 110 39 117 44 18 11 6 36 -24 50 -37 16 -1119 13 -1234 -4z m-890
-5434 c128 -89 307 -151 436 -151 l44 0 0 -160 c0 -121 -3 -160 -12 -160 -26
0 -142 61 -228 121 -50 33 -125 98 -167 143 -73 78 -162 210 -178 265 l-7 24
28 -22 c16 -12 54 -39 84 -60z m5156 9 c-47 -93 -95 -156 -188 -246 -99 -95
-163 -142 -274 -199 -109 -55 -104 -61 -104 124 l0 158 87 7 c145 11 310 75
437 171 33 24 62 43 64 40 2 -2 -8 -27 -22 -55z m-873 -212 c6 -26 5 -45 -5
-65 l-13 -28 -1724 -3 c-1266 -1 -1727 1 -1737 9 -14 12 -20 110 -7 122 3 4
787 6 1742 5 l1735 -3 9 -37z m-5 -317 c2 -30 -1 -58 -6 -63 -10 -10 -3455
-13 -3471 -3 -12 7 -15 107 -4 118 3 4 788 6 1742 5 l1736 -3 3 -54z"/>
<path d="M4765 7914 c-179 -31 -377 -111 -532 -215 -103 -68 -275 -243 -345
-349 -157 -237 -228 -474 -228 -761 0 -327 94 -579 353 -944 97 -137 545 -728
684 -901 121 -152 290 -344 302 -344 10 0 143 155 253 294 51 66 260 341 463
612 460 613 515 705 587 984 26 97 31 140 35 275 4 137 2 175 -17 265 -62 304
-189 533 -413 746 -201 190 -440 304 -721 343 -105 15 -323 12 -421 -5z m485
-309 c423 -115 718 -468 769 -920 25 -218 -45 -472 -192 -697 -29 -46 -126
-180 -214 -298 -218 -292 -420 -577 -528 -744 l-89 -138 -19 23 c-10 13 -57
85 -104 159 -93 148 -205 306 -506 714 -264 358 -315 449 -368 652 -20 75 -24
113 -24 239 0 130 4 164 27 253 50 192 171 401 301 518 57 52 184 138 262 177
190 95 470 121 685 62z"/>
<path d="M4865 7246 c-250 -58 -438 -237 -500 -477 -25 -95 -17 -270 17 -366
54 -153 178 -292 323 -364 184 -91 384 -90 575 3 68 33 102 58 171 127 132
132 189 268 189 455 0 279 -174 514 -450 606 -83 28 -240 35 -325 16z m274
-325 c62 -32 129 -97 159 -156 23 -44 27 -62 27 -145 0 -81 -4 -102 -25 -145
-35 -72 -117 -149 -187 -175 -166 -62 -371 30 -433 196 -23 64 -26 169 -6 227
33 90 119 177 209 209 71 25 195 20 256 -11z"/>
<path d="M7276 7432 c-20 -58 -36 -75 -91 -92 l-40 -13 41 -17 c46 -20 78 -55
94 -106 6 -19 15 -34 20 -34 4 0 16 24 26 53 17 45 26 56 69 79 l50 27 -47 20
c-45 19 -78 59 -78 94 0 8 -6 20 -14 26 -12 10 -17 3 -30 -37z"/>
<path d="M2740 7454 c0 -43 -34 -87 -84 -109 l-50 -22 37 -12 c42 -14 86 -61
94 -102 9 -45 28 -42 41 6 12 45 53 85 101 100 24 7 22 9 -23 32 -40 20 -52
33 -69 74 -20 47 -47 66 -47 33z"/>
<path d="M7109 5386 c-171 -48 -303 -207 -316 -382 -5 -67 -9 -75 -42 -108
l-37 -36 -99 44 c-197 86 -594 204 -746 222 l-56 6 -28 -51 c-20 -35 -45 -62
-82 -87 -99 -66 -82 -114 48 -132 121 -18 297 -59 434 -103 140 -44 295 -107
295 -119 0 -4 -41 -43 -92 -86 -157 -135 -128 -124 -312 -124 l-161 0 -47 53
c-30 35 -71 66 -115 89 -87 46 -246 96 -313 100 l-53 3 -63 -83 c-35 -45 -64
-88 -64 -96 0 -8 23 -18 58 -26 120 -27 222 -89 222 -136 0 -59 -101 -118
-265 -155 -82 -18 -131 -22 -270 -23 -179 0 -246 9 -375 50 -85 26 -133 55
-163 96 -17 23 -19 32 -9 52 17 37 81 75 179 105 48 15 88 32 90 37 2 5 -26
45 -62 89 -36 44 -65 84 -65 89 0 24 -213 -35 -324 -91 -172 -87 -238 -237
-161 -368 134 -230 711 -344 1265 -249 108 18 262 65 332 100 26 13 52 24 58
24 6 0 10 -33 10 -84 0 -70 3 -88 22 -111 41 -52 61 -55 392 -55 392 0 406 4
406 124 l0 55 157 146 157 147 19 -39 c42 -82 11 -185 -91 -294 -175 -189
-474 -309 -992 -398 -342 -58 -440 -66 -855 -66 -416 1 -524 10 -880 76 -629
117 -1034 343 -1063 594 -12 109 119 265 323 387 200 119 547 236 845 285 58
9 111 21 118 27 27 20 8 59 -52 105 -32 25 -67 62 -77 81 -30 58 -36 62 -87
54 -94 -13 -367 -86 -525 -141 -313 -107 -541 -235 -699 -394 -73 -74 -94
-103 -135 -186 -45 -93 -48 -103 -51 -195 -5 -110 8 -162 66 -268 42 -78 170
-208 262 -268 402 -262 1177 -432 1970 -432 442 0 887 53 1271 150 594 150
958 409 1011 720 21 120 -17 261 -102 385 -30 43 -31 48 -16 63 11 11 43 19
101 23 175 14 304 119 357 293 92 304 -209 598 -523 512z m175 -362 c28 -27
18 -47 -57 -119 -41 -38 -197 -190 -348 -336 -151 -146 -319 -307 -374 -358
-66 -61 -102 -102 -105 -119 l-5 -27 -195 0 -195 0 -3 53 -3 52 158 0 158 1
260 251 c143 139 345 334 449 435 198 192 221 206 260 167z"/>
<path d="M3773 4210 c-54 -22 -71 -103 -35 -162 85 -136 336 -253 701 -328
221 -44 335 -53 638 -47 294 6 460 24 503 56 36 27 35 86 -2 114 -26 19 -33
20 -115 9 -391 -51 -805 -34 -1116 48 -121 32 -165 48 -267 98 -92 45 -128 75
-221 181 -37 42 -48 46 -86 31z"/>
</g>
</svg>
